General
Complete name                    : Impact Point.mkv
Format                           : Matroska
File size                        : 1.35 GiB
Duration                         : 1h 21mn
Overall bit rate                 : 2 370 Kbps
Writing application              : HandBrake 0.9.4

Video

Format                           : AVC
Duration                         : 1h 21mn
Bit rate                         : 1 539 Kbps
Width                            : 720 pixels
Height                           : 548 pixels
Display aspect ratio             : 1.869
Scan type                        : Progressive
Stream size                      : 897 MiB (65%)
Writing library                  : x264 core 79


Audio #1

Format                           : AC-3
Bit rate                         : 448 Kbps
Channel(s)                       : 6 channels
Channel positions                : Front: L C R, Side: L R, LFE
Sampling rate                    : 48.0 KHz
Stream size                      : 261 MiB (19%)
Language                         : English

Audio #2
Codec ID/Hint                    : MP3
Bit rate mode                    : Constant
Bit rate                         : 112 Kbps
Channel(s)                       : 2 channels
Sampling rate                    : 48.0 KHz
Stream size                      : 65.3 MiB (5%)
Language                         : French

Audio #3
Codec ID/Hint                    : MP3
Bit rate                         : 112 Kbps
Channel(s)                       : 2 channels
Sampling rate                    : 48.0 KHz
Stream size                      : 65.3 MiB (5%)
Language                         : Italian

Audio #4

Codec ID/Hint                    : MP3
Bit rate                         : 112 Kbps
Channel(s)                       : 2 channels
Sampling rate                    : 48.0 KHz
Stream size                      : 65.3 MiB (5%)
Language                         : Spanish

Text #1
Language                         : English

Text #2
Language                         : French

Text #3
Language                         : Italian

Text #4
Language                         : Spanish

Text #5
Language                         : Arabic

Text #6
Language                         : Bulgarian

Text #7
Language                         : Croatian

Text #8
Language                         : Danish

Text #9
Language                         : Dutch

Text #10
Language                         : Finnish

Text #11
Language                         : Greek

Text #12
Language                         : xxxxxx 

Text #13
Language                         : Hindi

Text #14
Language                         : Icelandic

Text #15
Language                         : Norwegian

Text #16
Language                         : Portuguese

Text #17
Language                         : Romanian

Text #18
Language                         : Slovak

Text #19
Language                         : Slovenian

Text #20
Language                         : Swedish

Text #21
Language                         : Turkish

